<?xml version="1.0" standalone="no"?><!DOCTYPE svg PUBLIC "-//W3C//DTD SVG 1.1//EN" "http://www.w3.org/Graphics/SVG/1.1/DTD/svg11.dtd"><svg t="1606204083330" class="icon" viewBox="0 0 1024 1024" version="1.1" xmlns="http://www.w3.org/2000/svg" p-id="2041" xmlns:xlink="http://www.w3.org/1999/xlink" width="200" height="200"><defs><style type="text/css"></style></defs><path d="M733.976092 128.406508c-32.626072-18.838044-74.333986-7.659447-93.16282 24.961508l-40.699957 70.307276c-28.245298-6.075369-58.112536-9.480932-89.604784-9.480932-293.635667 0-445.218014 297.803593-445.218014 297.803593s82.454944 149.279908 231.025701 236.45127l-31.253818 53.983495c-18.831904 32.618908-7.659447 74.327846 24.964578 93.164866 32.615838 18.828834 74.330916 7.659447 93.164866-24.964578L758.936577 221.569328C777.772574 188.95042 766.591931 147.238412 733.976092 128.406508zM304.728818 511.997953c0-114.952078 92.615351-208.164017 207.269647-208.164017 13.520945 0 26.731828 1.300622 39.521109 3.776l-37.147038 64.167438c-0.791016-0.01228-1.578961-0.044002-2.37407-0.044002-77.131705 0-139.67004 62.835094-139.67004 140.263557 0 26.116821 7.132444 50.523697 19.526729 71.417563l-37.134759 64.144926C323.559699 611.141998 304.728818 563.795667 304.728818 511.997953z" p-id="2042"></path><path d="M770.978844 300.511261 699.60119 423.39601c12.599969 26.88737 19.668968 56.910151 19.668968 88.601944 0 109.690238-84.347037 199.515033-191.68367 207.520357l-51.458999 88.590688c11.92868 1.092891 24.075325 1.695618 36.464493 1.695618 292.447609 0 446.1175-297.807686 446.1175-297.807686S895.060861 388.454196 770.978844 300.511261z" p-id="2043"></path></svg>